# xmcd
#
# Track frame offsets:
#	150
#	11792
#	38017
#	68360
#	89767
#	118217
#	131622
#	145257
#	157495
#	173110
#	184135
#	196305
#	221690
#	234125
#	246410
#
# Disc length: 3430
#
# Revision: 3
# Processed by: cddbd v1.5.1PL0 Copyright (c) Steve Scherf et al.
# Submitted via: DiscPlay 4.0.4
# Normalized: r1:DSETVAR1,TDELIM( - ),TSWAP
#
DISCID=dc0d640f
DTITLE=Various Artist - Lo Mejor Del BLUES
DYEAR=1900
DGENRE=
TTITLE0=John Lee Hooker - Boom, boom
TTITLE1=Lightnin Hopkins - Blowing the fuse
TTITLE2=Blind Sony Terry and Brownie McGhee - Everybody's blue
TTITLE3=Big Bill Broonzy - I got up one morning blues
TTITLE4=Bessie Smith - Empty bed blues
TTITLE5=Jack Dupree - Walking the blues
TTITLE6=Leadbelly - Matchbox blues
TTITLE7=Jimmy Rushing - Somebody spoiling these women
TTITLE8=Jimmy Witherspoon - Trouble in mind
TTITLE9=Lowell Fulson - Blues with a feeling
TTITLE10=Ray Charles - Going down slow
TTITLE11=Howling Wolf - Litle red roodster
TTITLE12=Chuck Berry - No particular place to go
TTITLE13=Buddy Guy - Going home
TTITLE14=Sonny Boy Williamson - Let you concience be your guide
EXTD=
EXTT0=
EXTT1=
EXTT2=
EXTT3=
EXTT4=
EXTT5=
EXTT6=
EXTT7=
EXTT8=
EXTT9=
EXTT10=
EXTT11=
EXTT12=
EXTT13=
EXTT14=
PLAYORDER=
